<svg width="21" height="22" viewBox="0 0 21 22" fill="none" xmlns="http://www.w3.org/2000/svg">
<path class="no-fill" fill="currentColor" d="M2.625 11.0002C2.625 10.0377 3.4125 9.25024 4.375 9.25024C5.3375 9.25024 6.125 10.0377 6.125 11.0002C6.125 11.9627 5.3375 12.7502 4.375 12.7502C3.4125 12.7502 2.625 11.9627 2.625 11.0002ZM10.5 12.7502C11.4625 12.7502 12.25 11.9627 12.25 11.0002C12.25 10.0377 11.4625 9.25024 10.5 9.25024C9.5375 9.25024 8.75 10.0377 8.75 11.0002C8.75 11.9627 9.5375 12.7502 10.5 12.7502ZM16.625 12.7502C17.5875 12.7502 18.375 11.9627 18.375 11.0002C18.375 10.0377 17.5875 9.25024 16.625 9.25024C15.6625 9.25024 14.875 10.0377 14.875 11.0002C14.875 11.9627 15.6625 12.7502 16.625 12.7502Z" fill="#A7AAB3"/>
</svg>
